<svg xmlns="http://www.w3.org/2000/svg" viewBox="0 0 1000 1000">
  <rect x="120" y="190" width="640" height="620" rx="70" fill="#eef2f5" stroke="#44515d" stroke-width="22"/>
  <circle cx="440" cy="500" r="212" fill="#8a6a46"/>
  <path d="M228 500 A 212 212 0 0 1 652 500 Z" fill="#2f9fd0"/>
  <rect x="228" y="492" width="424" height="16" fill="#ffffff"/>
  <circle cx="440" cy="500" r="212" fill="none" stroke="#44515d" stroke-width="22"/>
  <g stroke="#ffd34d" stroke-width="20" stroke-linecap="round" fill="none">
    <path d="M308 500 H 376"/><path d="M504 500 H 572"/>
    <path d="M376 500 L 410 534 L 470 534 L 504 500"/>
  </g>
  <!-- signal take-offs -->
  <g fill="#2f9fd0">
    <rect x="760" y="238" width="190" height="24" rx="12"/>
    <rect x="760" y="488" width="190" height="24" rx="12"/>
    <rect x="760" y="738" width="190" height="24" rx="12"/>
  </g>
  <g fill="#44515d">
    <circle cx="762" cy="250" r="26"/><circle cx="762" cy="500" r="26"/><circle cx="762" cy="750" r="26"/>
  </g>
</svg>
